<svg width="382" height="96" viewBox="0 0 382 96" fill="none" xmlns="http://www.w3.org/2000/svg">
<path d="M23.74 20.33C27.46 20.33 30.73 21.08 33.55 22.58C36.37 24.02 38.59 25.91 40.21 28.25V21.14H52.9V71.36C52.9 75.98 51.97 80.09 50.11 83.69C48.25 87.35 45.46 90.23 41.74 92.33C38.02 94.49 33.52 95.57 28.24 95.57C21.16 95.57 15.34 93.92 10.78 90.62C6.28 87.32 3.73 82.82 3.13 77.12H15.64C16.3 79.4 17.71 81.2 19.87 82.52C22.09 83.9 24.76 84.59 27.88 84.59C31.54 84.59 34.51 83.48 36.79 81.26C39.07 79.1 40.21 75.8 40.21 71.36V63.62C38.59 65.96 36.34 67.91 33.46 69.47C30.64 71.03 27.4 71.81 23.74 71.81C19.54 71.81 15.7 70.73 12.22 68.57C8.74 66.41 5.98 63.38 3.94 59.48C1.96 55.52 0.97 50.99 0.97 45.89C0.97 40.85 1.96 36.38 3.94 32.48C5.98 28.58 8.71 25.58 12.13 23.48C15.61 21.38 19.48 20.33 23.74 20.33ZM40.21 46.07C40.21 43.01 39.61 40.4 38.41 38.24C37.21 36.02 35.59 34.34 33.55 33.2C31.51 32 29.32 31.4 26.98 31.4C24.64 31.4 22.48 31.97 20.5 33.11C18.52 34.25 16.9 35.93 15.64 38.15C14.44 40.31 13.84 42.89 13.84 45.89C13.84 48.89 14.44 51.53 15.64 53.81C16.9 56.03 18.52 57.74 20.5 58.94C22.54 60.14 24.7 60.74 26.98 60.74C29.32 60.74 31.51 60.17 33.55 59.03C35.59 57.83 37.21 56.15 38.41 53.99C39.61 51.77 40.21 49.13 40.21 46.07ZM77.8061 28.88C79.4261 26.24 81.5261 24.17 84.1061 22.67C86.7461 21.17 89.7461 20.42 93.1061 20.42V33.65H89.7761C85.8161 33.65 82.8161 34.58 80.7761 36.44C78.7961 38.3 77.8061 41.54 77.8061 46.16V71H65.2061V21.14H77.8061V28.88ZM98.3528 45.89C98.3528 40.85 99.3428 36.38 101.323 32.48C103.363 28.58 106.093 25.58 109.513 23.48C112.993 21.38 116.863 20.33 121.123 20.33C124.843 20.33 128.083 21.08 130.843 22.58C133.663 24.08 135.913 25.97 137.593 28.25V21.14H150.283V71H137.593V63.71C135.973 66.05 133.723 68 130.843 69.56C128.023 71.06 124.753 71.81 121.033 71.81C116.833 71.81 112.993 70.73 109.513 68.57C106.093 66.41 103.363 63.38 101.323 59.48C99.3428 55.52 98.3528 50.99 98.3528 45.89ZM137.593 46.07C137.593 43.01 136.993 40.4 135.793 38.24C134.593 36.02 132.973 34.34 130.933 33.2C128.893 32 126.703 31.4 124.363 31.4C122.023 31.4 119.863 31.97 117.883 33.11C115.903 34.25 114.283 35.93 113.023 38.15C111.823 40.31 111.223 42.89 111.223 45.89C111.223 48.89 111.823 51.53 113.023 53.81C114.283 56.03 115.903 57.74 117.883 58.94C119.923 60.14 122.083 60.74 124.363 60.74C126.703 60.74 128.893 60.17 130.933 59.03C132.973 57.83 134.593 56.15 135.793 53.99C136.993 51.77 137.593 49.13 137.593 46.07ZM183.379 59.39L195.979 21.14H209.389L190.939 71H175.639L157.279 21.14H170.779L183.379 59.39ZM222.856 15.2C220.636 15.2 218.776 14.51 217.276 13.13C215.836 11.69 215.116 9.92 215.116 7.82C215.116 5.72 215.836 3.98 217.276 2.6C218.776 1.16 220.636 0.439996 222.856 0.439996C225.076 0.439996 226.906 1.16 228.346 2.6C229.846 3.98 230.596 5.72 230.596 7.82C230.596 9.92 229.846 11.69 228.346 13.13C226.906 14.51 225.076 15.2 222.856 15.2ZM229.066 21.14V71H216.466V21.14H229.066ZM256.185 31.49V55.61C256.185 57.29 256.575 58.52 257.355 59.3C258.195 60.02 259.575 60.38 261.495 60.38H267.345V71H259.425C248.805 71 243.495 65.84 243.495 55.52V31.49H237.555V21.14H243.495V8.81H256.185V21.14H267.345V31.49H256.185ZM298.547 71.81C293.747 71.81 289.427 70.76 285.587 68.66C281.747 66.5 278.717 63.47 276.497 59.57C274.337 55.67 273.257 51.17 273.257 46.07C273.257 40.97 274.367 36.47 276.587 32.57C278.867 28.67 281.957 25.67 285.857 23.57C289.757 21.41 294.107 20.33 298.907 20.33C303.707 20.33 308.057 21.41 311.957 23.57C315.857 25.67 318.917 28.67 321.137 32.57C323.417 36.47 324.557 40.97 324.557 46.07C324.557 51.17 323.387 55.67 321.047 59.57C318.767 63.47 315.647 66.5 311.687 68.66C307.787 70.76 303.407 71.81 298.547 71.81ZM298.547 60.83C300.827 60.83 302.957 60.29 304.937 59.21C306.977 58.07 308.597 56.39 309.797 54.17C310.997 51.95 311.597 49.25 311.597 46.07C311.597 41.33 310.337 37.7 307.817 35.18C305.357 32.6 302.327 31.31 298.727 31.31C295.127 31.31 292.097 32.6 289.637 35.18C287.237 37.7 286.037 41.33 286.037 46.07C286.037 50.81 287.207 54.47 289.547 57.05C291.947 59.57 294.947 60.83 298.547 60.83ZM361.43 20.42C367.37 20.42 372.17 22.31 375.83 26.09C379.49 29.81 381.32 35.03 381.32 41.75V71H368.72V43.46C368.72 39.5 367.73 36.47 365.75 34.37C363.77 32.21 361.07 31.13 357.65 31.13C354.17 31.13 351.41 32.21 349.37 34.37C347.39 36.47 346.4 39.5 346.4 43.46V71H333.8V21.14H346.4V27.35C348.08 25.19 350.21 23.51 352.79 22.31C355.43 21.05 358.31 20.42 361.43 20.42Z" fill="url(#paint0_linear)"/>
<defs>
<linearGradient id="paint0_linear" x1="174.536" y1="-28" x2="220.853" y2="187.565" gradientUnits="userSpaceOnUse">
<stop stop-color="#FF0048"/>
<stop offset="1" stop-color="#FF7A00"/>
</linearGradient>
</defs>
</svg>
